<?xml version="1.0" encoding="UTF-8"?>
<svg width="18px" height="18px" viewBox="0 0 18 18" version="1.1" xmlns="http://www.w3.org/2000/svg">
    <g stroke="none" stroke-width="1" fill="none" fill-rule="evenodd">
        <path d="M9,0 C4.0275,0 0,4.0275 0,9 C0,12.9825 2.57625,16.3425 6.15375,17.53875 C6.60375,17.6175 6.7725,17.3475 6.7725,17.11125 C6.7725,16.8975 6.76125,16.18875 6.76125,15.435 C4.5,15.9187 3.915,14.9625 3.735,14.4562 C3.63375,14.2087 3.195,13.41 2.8125,13.1962 C2.497,13.0275 2.0475,12.5437 2.80125,12.5325 C3.51,12.5212 4.01625,13.185 4.185,13.4437 C4.995,14.8125 6.28875,14.4900 6.80625,14.2537 C6.885,13.6725 7.12125,13.2862 7.38,13.0725 C5.3775,12.8587 3.285,12.0712 3.285,8.5987 C3.285,7.6087 3.63375,6.7875 4.2075,6.1425 C4.1175,5.9175 3.8025,4.9950 4.2975,3.7487 C4.2975,3.7487 5.05125,3.5125 6.7725,4.6800 C7.4925,4.4775 8.2575,4.3762 9.0225,4.3762 C9.7875,4.3762 10.5525,4.4775 11.2725,4.6800 C12.9937,3.5012 13.7475,3.7487 13.7475,3.7487 C14.2425,4.9950 13.9275,5.9175 13.8375,6.1425 C14.4112,6.7875 14.76,7.5975 14.76,8.5987 C14.76,12.0825 12.6562,12.8587 10.6537,13.0725 C10.98,13.3425 11.2612,13.8712 11.2612,14.6925 C11.2612,15.8737 11.25,16.8075 11.25,17.1112 C11.25,17.3475 11.4187,17.6287 11.8687,17.5387 C15.4237,16.3425 18,12.9712 18,9 C18,4.0275 13.9725,0 9,0 Z" fill="currentColor"/>
    </g>
</svg>
